<?xml version="1.0" encoding="UTF-8"?>
<svg xmlns="http://www.w3.org/2000/svg" version="1.1" xmlns:xlink="http://www.w3.org/1999/xlink" viewBox="0 0 330 61">
  <defs>
    <style>
      .cls-1 {
        fill: url(#linear-gradient-2);
      }

      .cls-2 {
        fill: #636466;
      }

      .cls-3 {
        fill: url(#linear-gradient);
      }
    </style>
    <linearGradient id="linear-gradient" x1="37.58" y1="96.86" x2="120.16" y2="-4.4" gradientUnits="userSpaceOnUse">
      <stop offset="0" stop-color="#047c3f"/>
      <stop offset=".7" stop-color="#7fc343"/>
      <stop offset=".92" stop-color="#87c441"/>
      <stop offset="1" stop-color="#8cc540"/>
    </linearGradient>
    <linearGradient id="linear-gradient-2" x1="44.49" y1="95.2" x2="128.1" y2="-7.33" xlink:href="#linear-gradient"/>
  </defs>
  <!-- Generator: Adobe Illustrator 28.8.0, SVG Export Plug-In . SVG Version: 1.2.0 Build 37)  -->
  <g>
    <g id="Layer_1">
      <g>
        <g>
          <path class="cls-2" d="M11.7,21.9c3.15.07,5.91.62,8.28,1.67,2.37,1.05,4.35,2.45,5.92,4.2,1.57,1.75,2.76,3.78,3.56,6.07.8,2.29,1.2,4.69,1.2,7.18s-.39,4.87-1.18,7.15c-.79,2.28-1.97,4.28-3.54,6.02-1.57,1.74-3.53,3.15-5.87,4.23-2.34,1.08-5.07,1.65-8.18,1.72H0V21.9h11.7ZM11.34,58.22c1.76,0,3.32-.29,4.66-.88,1.34-.59,2.5-1.37,3.48-2.33.98-.97,1.79-2.06,2.43-3.29.64-1.23,1.15-2.47,1.54-3.74.39-1.26.67-2.5.83-3.71.16-1.21.25-2.29.25-3.24s-.08-2.03-.25-3.24c-.16-1.21-.44-2.46-.83-3.73-.39-1.28-.91-2.53-1.54-3.76s-1.45-2.32-2.43-3.27c-.98-.95-2.14-1.72-3.48-2.31-1.34-.59-2.89-.88-4.66-.88h-5.2v34.4h5.2Z"/>
          <path class="cls-2" d="M47.47,20.96l15.82,39.17h-6.54l-5.6-14.25h-11.84l-5.65,14.25h-2.01l15.82-39.17ZM50.42,43.96l-5.11-13.07-5.21,13.07h10.32Z"/>
          <path class="cls-2" d="M88.46,38.71l13.27,21.43h-7.22l-10.03-16.12-12.04,16.12h-2.26l13.32-17.74-12.73-20.49h7.27l9.39,15.19,11.4-15.19h2.26l-12.63,16.81Z"/>
          <path class="cls-2" d="M108.61,21.9h6.14v38.23h-6.14V21.9Z"/>
          <path class="cls-2" d="M149.74,61.07l-.05-.05-24.18-28.26v27.37h-1.92V20.96l24.23,28.11v-27.18h1.92v39.17Z"/>
          <path class="cls-2" d="M197.02,21.9h2.01l-15.78,39.17-15.82-39.17h6.98l10.96,29.24,11.65-29.24Z"/>
          <path class="cls-2" d="M204.93,21.9h6.14v38.23h-6.14V21.9Z"/>
          <path class="cls-2" d="M223.41,28.04c0,1.84.46,3.39,1.38,4.67.92,1.28,2.06,2.42,3.42,3.42,1.36,1,2.83,1.95,4.42,2.85,1.59.9,3.06,1.88,4.42,2.92,1.36,1.05,2.5,2.26,3.42,3.64.92,1.38,1.38,3.05,1.38,5.01,0,3.37-1.15,5.97-3.46,7.79-2.31,1.82-5.51,2.73-9.61,2.73-1.54,0-2.9-.2-4.08-.59-1.18-.39-2.2-.84-3.05-1.33-.98-.59-1.84-1.24-2.56-1.97l1.28-1.43c.69.62,1.47,1.18,2.36,1.67.75.43,1.65.8,2.7,1.13,1.05.33,2.19.49,3.44.49,2.52,0,4.44-.52,5.75-1.55,1.31-1.03,1.97-2.55,1.97-4.55,0-1.28-.45-2.42-1.35-3.42-.9-1-2.02-1.96-3.37-2.87-1.34-.92-2.79-1.83-4.35-2.75-1.56-.92-3.01-1.95-4.35-3.1-1.34-1.15-2.47-2.45-3.37-3.91-.9-1.46-1.35-3.19-1.35-5.18,0-3.51,1.02-6.18,3.05-8.01,2.03-1.83,5-2.75,8.9-2.75,1.05,0,2.05.12,3,.37.95.25,1.84.55,2.68.91.84.36,1.6.78,2.29,1.25.69.48,1.28.93,1.77,1.35l-1.28,1.43c-.43-.39-.93-.79-1.52-1.2-.59-.41-1.25-.77-1.97-1.08-.72-.31-1.5-.57-2.33-.79-.84-.21-1.71-.32-2.63-.32-1.25,0-2.31.14-3.19.42-.88.28-1.61.66-2.16,1.13-.56.48-.97,1.02-1.23,1.65-.26.62-.39,1.28-.39,1.97Z"/>
          <path class="cls-2" d="M273.04,21.9v1.92h-11.55v36.32h-6.14V23.82h-11.55v-1.92h29.24Z"/>
          <path class="cls-2" d="M287.83,20.96l15.82,39.17h-6.54l-5.6-14.25h-11.84l-5.65,14.25h-2.01l15.82-39.17ZM290.78,43.96l-5.11-13.07-5.21,13.07h10.32Z"/>
          <path class="cls-2" d="M311.57,28.04c0,1.84.46,3.39,1.38,4.67.92,1.28,2.06,2.42,3.42,3.42,1.36,1,2.83,1.95,4.42,2.85,1.59.9,3.06,1.88,4.42,2.92,1.36,1.05,2.5,2.26,3.42,3.64.92,1.38,1.38,3.05,1.38,5.01,0,3.37-1.15,5.97-3.46,7.79-2.31,1.82-5.51,2.73-9.61,2.73-1.54,0-2.9-.2-4.08-.59-1.18-.39-2.2-.84-3.05-1.33-.98-.59-1.84-1.24-2.56-1.97l1.28-1.43c.69.62,1.47,1.18,2.36,1.67.75.43,1.65.8,2.7,1.13,1.05.33,2.19.49,3.44.49,2.52,0,4.44-.52,5.75-1.55,1.31-1.03,1.97-2.55,1.97-4.55,0-1.28-.45-2.42-1.35-3.42-.9-1-2.02-1.96-3.37-2.87-1.34-.92-2.79-1.83-4.35-2.75-1.56-.92-3.01-1.95-4.35-3.1-1.34-1.15-2.47-2.45-3.37-3.91-.9-1.46-1.35-3.19-1.35-5.18,0-3.51,1.02-6.18,3.05-8.01,2.03-1.83,5-2.75,8.9-2.75,1.05,0,2.05.12,3,.37.95.25,1.84.55,2.68.91.84.36,1.6.78,2.29,1.25.69.48,1.28.93,1.77,1.35l-1.28,1.43c-.43-.39-.93-.79-1.52-1.2-.59-.41-1.25-.77-1.97-1.08-.72-.31-1.5-.57-2.33-.79-.84-.21-1.71-.32-2.63-.32-1.25,0-2.31.14-3.19.42-.88.28-1.61.66-2.16,1.13-.56.48-.97,1.02-1.23,1.65-.26.62-.39,1.28-.39,1.97Z"/>
        </g>
        <path class="cls-3" d="M116.27,9.99c-1.11,1.18-2.6,1.77-4.46,1.77s-3.35-.59-4.46-1.77c-1.11-1.18-1.67-2.56-1.67-4.14s.55-2.96,1.67-4.14c1.11-1.18,2.6-1.77,4.46-1.77s3.35.59,4.46,1.77c1.11,1.18,1.67,2.56,1.67,4.14s-.56,2.96-1.67,4.14Z"/>
        <path class="cls-1" d="M111.8,13.75v.92l-2.63.22c-2.63.39-4.54,2.7-6.16,4.74l-14.22,19.19-4.84,6.45-4.91,6.36c-.86,1.08-1.29,2.26-1.29,3.55,0,.96.28,1.84.85,2.61.56.78,1.35,1.33,2.38,1.66v.72h-15.31v-.72l2.42-.81c2.68-.86,4.81-2.34,6.36-4.43l7.68-10.01,5.54-7.15,10.83-14.77s.01-.01.02-.03c.23-.27,1.76-2.6,3.76-5.11,1.99-2.48,2.77-3.2,3.42-3.4h6.09Z"/>
      </g>
    </g>
  </g>
</svg>